<?xml version="1.0" encoding="utf-8"?>
<svg id="master-artboard" xmlns="http://www.w3.org/2000/svg" viewBox="0 0 500 500" width="500px" height="500px"><rect id="ee-background" x="0" y="0" width="500" height="500" style="fill: white; fill-opacity: 0; pointer-events: none;"/><defs><style id="ee-google-fonts">@import url(https://fonts.googleapis.com/css?family=Akronim:400);</style></defs><g transform="matrix(0.2432160310756435, 0, 0, 0.2432160310756435, 336.0367335968221, 76.75793851150138)"/><g transform="matrix(9.578542752049724, 0, 0, 9.578542752049724, -8.526512829121202e-14, 37.83525454875931)"><g>
	<path class="st0" d="M48.2,35.7l-8.7-15.8c-1.6-2.6-5.4-2.6-6.8,0.2l-5.2,9.4c-0.7,1.2-0.7,2.6,0,3.8l3.5,6.4&#10;&#9;&#9;c0.7,1.2,1.9,1.9,3.3,1.9h10.4C47.7,41.3,49.6,38.3,48.2,35.7z" style="fill: rgb(62, 84, 255);"/>
	
	<path d="M 24.899999618530273 2.700000047683716 L 3.5 41.29999923706055 L 18.299999237060547 41.29999923706055 L 32.400001525878906 16.100000381469727 Z" class="st0" style="fill: rgb(62, 84, 255);"/>
</g></g><g transform="matrix(0.8844426104558807, 0, 0, 0.8844426104558807, 150.06730361772279, 58.58590941106083)"><g id="g-1" transform="matrix(1, 0, 0, 1, 0, 0)">
	<g id="g-2">
		<path class="st0" d="M103,336.5L53,424h100L103,336.5" style="fill: rgb(62, 85, 255);"/>
	</g>
</g></g></svg>